<?xml version="1.0" standalone="no"?><!DOCTYPE svg PUBLIC "-//W3C//DTD SVG 1.1//EN" "http://www.w3.org/Graphics/SVG/1.1/DTD/svg11.dtd">
<svg t="1655621291631" class="icon" viewBox="0 0 1024 1024" version="1.1"
  xmlns="http://www.w3.org/2000/svg" p-id="2487"
  xmlns:xlink="http://www.w3.org/1999/xlink" width="200" height="200">
  <defs>
    <style type="text/css"></style>
  </defs>
  <path d="M722 922H302c-110.5 0-200-89.5-200-200V302c0-110.5 89.5-200 200-200h420c110.5 0 200 89.5 200 200v420c0 110.5-89.5 200-200 200z" fill="transparent" p-id="2488"></path>
  <path d="M505.3 680.5l-1.8-0.5c-11.6-3.1-18.5-15.1-15.4-26.8l6.4-23.9c3.1-11.6 15-18.6 26.7-15.5l1.8 0.5c11.6 3.1 18.5 15.1 15.4 26.8L532 665c-3.1 11.6-15 18.5-26.7 15.5z m123.8-28.3l-12.3-21.4c-6-10.4-2.5-23.8 8-29.8l1.6-1c10.4-6 23.7-2.5 29.8 7.9v0.1l12.3 21.4c6 10.4 2.5 23.8-8 29.8l-1.6 1c-10.4 6-23.7 2.5-29.8-8z m-248.4-66.9l-0.9-1.6c-6-10.4-2.4-23.8 8-29.8l21.3-12.3c10.4-6 23.7-2.5 29.7 7.9v0.1l0.9 1.6c6 10.4 2.4 23.8-8 29.8l-21.3 12.3c-10.3 6-23.6 2.5-29.7-8 0 0.1 0 0 0 0z m147 6.9c-61.1-16.3-97.4-79.2-81.1-140.3 16.4-61.2 79.2-97.5 140.3-81.1 61.2 16.4 97.5 79.2 81.1 140.3-6.6 24.6-21.2 46.3-41.5 61.7-9.8 7.4-20.8 13.3-32.4 17.2-21.4 7.4-44.5 8.1-66.4 2.2z m200.5-40.7l-23.8-6.4c-11.6-3.1-18.5-15.1-15.4-26.8l0.5-1.8c3.1-11.6 15-18.6 26.7-15.5l23.8 6.4c11.6 3.1 18.5 15.1 15.4 26.8l-0.5 1.8c-3.1 11.6-15 18.5-26.6 15.5h-0.1zM398.5 463l-23.8-6.4c-11.6-3.1-18.5-15.1-15.4-26.8l0.5-1.8c3.1-11.6 15-18.6 26.7-15.5l23.8 6.4c11.6 3.1 18.5 15.1 15.4 26.8l-0.5 1.8c-3 11.6-15 18.6-26.7 15.5 0.1 0 0.1 0 0 0z m277.4-48.5l-1-1.6c-6-10.4-2.4-23.8 8-29.8l21.3-12.3c10.4-6 23.7-2.5 29.7 7.9v0.1l0.9 1.6c6 10.4 2.4 23.8-8 29.8l-21.2 12.3c-10.4 6-23.7 2.5-29.7-8 0 0.1 0 0 0 0zM458.5 356l-12.3-21.4c-6-10.4-2.5-23.8 8-29.8l1.6-1c10.4-6 23.7-2.5 29.8 7.9v0.1l12.3 21.4c6 10.4 2.5 23.8-8 29.8l-1.6 1c-10.4 6-23.8 2.5-29.8-8 0 0.1 0 0 0 0z m135.1-5.9l-1.8-0.5c-11.6-3.1-18.5-15.1-15.4-26.8l6.4-23.9c3.1-11.6 15-18.6 26.7-15.5l1.8 0.5c11.6 3.1 18.5 15.1 15.4 26.8l-6.4 23.9c-3.1 11.7-15 18.6-26.7 15.5z" fill="#FFDC00" p-id="2489"></path>
  <path d="M382 741.3c-63.1-0.1-114.2-51.3-114.2-114.4 0.1-61.2 48.3-111.5 109.4-114.1 11.9-20.5 28.8-37.5 49.2-49.6 49-28.9 110.7-24.4 155 11.3 23.9 19.2 40.7 45.8 47.7 75.6 30.4 18.8 48.9 52 48.8 87.7 0.1 56.8-45.8 103-102.6 103.1-0.1 0-189.6 0.4-193.3 0.4z" fill="#FFFFFF" p-id="2490"></path>
</svg>
