<?xml version="1.0" standalone="no"?><!DOCTYPE svg PUBLIC "-//W3C//DTD SVG 1.1//EN" "http://www.w3.org/Graphics/SVG/1.1/DTD/svg11.dtd">
<svg t="1655621298761" class="icon" viewBox="0 0 1024 1024" version="1.1"
  xmlns="http://www.w3.org/2000/svg" p-id="2831"
  xmlns:xlink="http://www.w3.org/1999/xlink" width="200" height="200">
  <defs>
    <style type="text/css"></style>
  </defs>
  <path d="M722 922H302c-110.5 0-200-89.5-200-200V302c0-110.5 89.5-200 200-200h420c110.5 0 200 89.5 200 200v420c0 110.5-89.5 200-200 200z" fill="transparent" p-id="2832"></path>
  <path d="M360.5 682.6m-24 0a24 24 0 1 0 48 0 24 24 0 1 0-48 0Z" fill="#FFDC00" p-id="2833"></path>
  <path d="M423 682.6m-24 0a24 24 0 1 0 48 0 24 24 0 1 0-48 0Z" fill="#FFDC00" p-id="2834"></path>
  <path d="M485.4 682.6m-24 0a24 24 0 1 0 48 0 24 24 0 1 0-48 0Z" fill="#FFDC00" p-id="2835"></path>
  <path d="M547.9 682.6m-24 0a24 24 0 1 0 48 0 24 24 0 1 0-48 0Z" fill="#FFDC00" p-id="2836"></path>
  <path d="M610.4 682.6m-24 0a24 24 0 1 0 48 0 24 24 0 1 0-48 0Z" fill="#FFDC00" p-id="2837"></path>
  <path d="M672.8 682.6m-24 0a24 24 0 1 0 48 0 24 24 0 1 0-48 0Z" fill="#FFDC00" p-id="2838"></path>
  <path d="M391.6 643.8c-66 0-119.6-53.5-119.6-119.6s53.5-119.6 119.6-119.6h3.3c36.4-76.4 127.8-108.7 204.2-72.3 47.4 22.6 80 68 86.2 120.1 51.5 17.5 79 73.4 61.5 124.9-13.6 40-51.2 66.8-93.4 66.7l-261.8-0.2z" fill="#FFFFFF" p-id="2839"></path>
</svg>
