<?xml version="1.0" standalone="no"?><!DOCTYPE svg PUBLIC "-//W3C//DTD SVG 1.1//EN" "http://www.w3.org/Graphics/SVG/1.1/DTD/svg11.dtd">
<svg t="1655621281547" class="icon" viewBox="0 0 1024 1024" version="1.1"
  xmlns="http://www.w3.org/2000/svg" p-id="1618"
  xmlns:xlink="http://www.w3.org/1999/xlink" width="200" height="200">
  <defs>
    <style type="text/css"></style>
  </defs>
  <path d="M722 922H302c-110.5 0-200-89.5-200-200V302c0-110.5 89.5-200 200-200h420c110.5 0 200 89.5 200 200v420c0 110.5-89.5 200-200 200z" fill="transparent" p-id="1619"></path>
  <path d="M588.6 702.9c0-6.5 1.6-12.9 4.7-18.6l27.9-72.7 31.2 76c2.3 4.8 3.5 10 3.5 15.3-0.3 18.9-15.8 33.9-34.7 33.6-18.6 0-32.6-14.4-32.6-33.6zM493.8 687c0-6.5 1.6-12.9 4.7-18.6l27.9-72.7 31.2 76c2.3 4.8 3.5 10 3.5 15.2-0.3 18.9-15.8 33.9-34.7 33.6-18.7 0.1-32.6-14.3-32.6-33.5zM397 665.3c0-6.5 1.6-12.9 4.7-18.6l27.9-72.7 31.2 76c2.3 4.8 3.5 10 3.5 15.3-0.3 18.9-15.8 33.9-34.7 33.6-18.6 0-32.6-14.4-32.6-33.6z" fill="#00C8FF" p-id="1620"></path>
  <path d="M391.5 613.8c-66 0-119.6-53.4-119.6-119.5 0-66 53.4-119.6 119.5-119.6h3.5c36.4-76.3 127.8-108.7 204.2-72.3 47.4 22.6 79.9 67.9 86.2 120.1 51.5 17.5 79 73.4 61.5 124.9-13.6 40-51.1 66.8-93.4 66.7l-261.9-0.3z" fill="#FFFFFF" p-id="1621"></path>
</svg>
