<?xml version="1.0" standalone="no"?><!DOCTYPE svg PUBLIC "-//W3C//DTD SVG 1.1//EN" "http://www.w3.org/Graphics/SVG/1.1/DTD/svg11.dtd">
<svg t="1655621287597" class="icon" viewBox="0 0 1024 1024" version="1.1"
  xmlns="http://www.w3.org/2000/svg" p-id="2135"
  xmlns:xlink="http://www.w3.org/1999/xlink" width="200" height="200">
  <defs>
    <style type="text/css"></style>
  </defs>
  <path d="M722 922H302c-110.5 0-200-89.5-200-200V302c0-110.5 89.5-200 200-200h420c110.5 0 200 89.5 200 200v420c0 110.5-89.5 200-200 200z" fill="transparent" p-id="2136"></path>
  <path d="M466.4 302.6c-7.1-2.4-14.4-4.3-21.8-5.6 11.4 35.1 5.1 73.6-17 103.2-37.6 50.4-108.9 60.8-159.2 23.2-1.2 7.6-1.8 15.2-1.8 22.8-0.2 83.6 67.5 151.5 151.1 151.6 65-0.1 122.7-41.6 143.5-103.2v-0.1c26.7-79.1-15.7-165-94.8-191.9z" fill="#FFDC00" p-id="2137"></path>
  <path d="M458.9 727c-63.7-0.1-115.3-51.7-115.2-115.4 0.1-61.7 48.7-112.5 110.4-115.1 12-20.7 29.1-37.9 49.6-50 49.4-29.1 111.7-24.6 156.4 11.4 24.1 19.4 41 46.2 48.1 76.3 30.7 19 49.3 52.5 49.3 88.5 0.1 57.3-46.2 103.9-103.5 104-0.1 0-191.4 0.3-195.1 0.3z" fill="#FFFFFF" p-id="2138"></path>
</svg>
