<?xml version="1.0" standalone="no"?><!DOCTYPE svg PUBLIC "-//W3C//DTD SVG 1.1//EN" "http://www.w3.org/Graphics/SVG/1.1/DTD/svg11.dtd">
<svg t="1655621285511" class="icon" viewBox="0 0 1024 1024" version="1.1"
  xmlns="http://www.w3.org/2000/svg" p-id="1964"
  xmlns:xlink="http://www.w3.org/1999/xlink" width="200" height="200">
  <defs>
    <style type="text/css"></style>
  </defs>
  <path d="M722 922H302c-110.5 0-200-89.5-200-200V302c0-110.5 89.5-200 200-200h420c110.5 0 200 89.5 200 200v420c0 110.5-89.5 200-200 200z" fill="transparent" p-id="1965"></path>
  <path d="M510.2 752c-116.6 0-216.3-83.7-236.4-198.5 94.5 31.1 196.3-20.3 227.4-114.8 18.3-55.8 8.4-117-26.7-164 11.8-1.8 23.7-2.6 35.7-2.6 47.8-0.1 94.6 14.2 134.2 41 38.6 26 68.8 62.7 86.9 105.6 31.6 74.7 23.3 160.4-22.1 227.6-26 38.6-62.7 68.8-105.6 87-29.6 12.3-61.3 18.8-93.4 18.7z" fill="#FFDC00" p-id="1966"></path>
</svg>
