<?xml version="1.0" standalone="no"?><!DOCTYPE svg PUBLIC "-//W3C//DTD SVG 1.1//EN" "http://www.w3.org/Graphics/SVG/1.1/DTD/svg11.dtd">
<svg t="1655621327422" class="icon" viewBox="0 0 1024 1024" version="1.1"
  xmlns="http://www.w3.org/2000/svg" p-id="4765"
  xmlns:xlink="http://www.w3.org/1999/xlink" width="200" height="200">
  <defs>
    <style type="text/css"></style>
  </defs>
  <path d="M722 922H302c-110.5 0-200-89.5-200-200V302c0-110.5 89.5-200 200-200h420c110.5 0 200 89.5 200 200v420c0 110.5-89.5 200-200 200z" fill="transparent" p-id="4766"></path>
  <path d="M588.4 730.4c-10.4-0.3-18.5-8.9-18.3-19.3v-0.9c0.1-3.8 1.2-7.4 3-10.7l12.1-29c-1.4-0.5-2.6-1.2-3.8-2.1l-21.6 26c-1.8 2.5-4.1 4.5-6.8 5.9-9.6 5-21.4 1.3-26.4-8.2v-0.1c-4.9-9.1-1.4-20.4 7.7-25.3 0.2-0.1 0.5-0.2 0.7-0.3 3.3-1.8 7-2.7 10.7-2.7l30.7-4c-0.1-0.7-0.2-1.4-0.2-2.2 0-0.4 0-0.8 0.1-1.3l-33.8-5.8c-3-0.3-6-1.4-8.6-3-9.2-5.8-11.9-18-6.1-27.2 5.4-8.7 16.8-11.4 25.6-6 0.3 0.2 0.5 0.3 0.7 0.5 3.2 2 5.8 4.7 7.7 8l18.8 24.5c1.3-1.2 2.8-2.2 4.5-2.8L573.6 617c-1.9-3.3-2.9-6.9-3-10.7-0.8-10.3 7-19.3 17.4-20.1h0.9c10.9-0.5 20.2 7.9 20.7 18.9 0.1 3.1-0.5 6.1-1.7 8.9l-11.5 30.9c0.9 0.5 1.8 1 2.6 1.7l18-23.6c1.9-3.2 4.5-6 7.7-7.9 8.5-5.8 20-3.7 25.8 4.8 0.2 0.2 0.3 0.5 0.5 0.7 5.8 9.2 3.1 21.3-6.1 27.2-2.6 1.6-5.5 2.6-8.6 3l-32.3 5.6v1.1c0 1-0.1 2-0.3 3l28.9 3.8c3.7 0 7.4 0.9 10.7 2.7 9.3 4.5 13.2 15.7 8.7 25-0.1 0.2-0.2 0.5-0.3 0.7-5 9.6-16.8 13.3-26.4 8.4h-0.1c-2.7-1.5-5-3.5-6.8-5.9l-21.2-25.5c-0.6 0.4-1.3 0.7-1.9 1l12 32.1c1.2 2.8 1.8 5.8 1.7 8.9-0.5 10.7-9.4 19-20.1 18.9-0.1-0.2-0.3-0.2-0.5-0.2z" fill="#DADADA" p-id="4767"></path>
  <path d="M472.4 697c-16.6-0.5-28.6-13.7-28.1-30.7 0.2-5.7 1.8-11.3 4.7-16.3l26.9-63.5 25.7 68.1c1.9 4.3 2.8 8.9 2.7 13.6-0.5 16.6-14.8 28.8-30.9 28.8h-1zM392.4 675.4c-12.5-0.1-22.6-10.3-22.5-22.9v-1.1c0.1-4.5 1.4-8.9 3.8-12.7l21.5-49.7 20.5 53.3c1.5 3.3 2.3 7 2.2 10.6-0.4 13-11.8 22.5-24.7 22.5h-0.8z" fill="#00C8FF" p-id="4768"></path>
  <path d="M391.5 619.9c-66 0-119.6-53.4-119.6-119.5 0-66 53.4-119.6 119.5-119.6h3.5c36.4-76.3 127.8-108.7 204.2-72.3 47.4 22.6 79.9 67.9 86.2 120.1 51.5 17.5 79 73.4 61.5 124.9-13.6 40-51.1 66.8-93.4 66.7l-261.9-0.3z" fill="#FFFFFF" p-id="4769"></path>
</svg>
