<?xml version="1.0" standalone="no"?><!DOCTYPE svg PUBLIC "-//W3C//DTD SVG 1.1//EN" "http://www.w3.org/Graphics/SVG/1.1/DTD/svg11.dtd">
<svg t="1655621316845" class="icon" viewBox="0 0 1024 1024" version="1.1"
  xmlns="http://www.w3.org/2000/svg" p-id="3879"
  xmlns:xlink="http://www.w3.org/1999/xlink" width="200" height="200">
  <defs>
    <style type="text/css"></style>
  </defs>
  <path d="M722 922H302c-110.5 0-200-89.5-200-200V302c0-110.5 89.5-200 200-200h420c110.5 0 200 89.5 200 200v420c0 110.5-89.5 200-200 200z" fill="transparent" p-id="3880"></path>
  <path d="M340.82 365.808c14 3.1 22.8 17 19.7 31s-17 22.8-31 19.7c-14-3.1-22.8-17-19.7-31 3.2-14 17.1-22.8 31-19.7z" fill="#FFDC00" p-id="3881"></path>
  <path d="M392.62 449.008c14 3.1 22.8 17 19.7 31s-17 22.8-31 19.7c-14-3.1-22.8-17-19.7-31 3.1-14 17-22.8 31-19.7z" fill="#FFFFFF" p-id="3882"></path>
  <path d="M453.92 366.408c14 3.1 22.8 17 19.7 31s-17 22.8-31 19.7c-14-3.1-22.8-17-19.7-31 3.2-14 17-22.8 31-19.7zM506.62 451.608c14 3.1 22.8 17 19.7 31s-17 22.8-31 19.7c-14-3.1-22.8-17-19.7-31 3.1-14.1 17-22.9 31-19.7zM626.22 451.708c14 3.1 22.8 17 19.7 31s-17 22.8-31 19.7c-14-3.1-22.8-17-19.7-31s17-22.8 31-19.7z" fill="#FFDC00" p-id="3883"></path>
  <path d="M568.42 366.608c14 3.1 22.8 17 19.7 31s-17 22.8-31 19.7c-14-3.1-22.8-17-19.7-31 3.1-14.1 17-22.9 31-19.7zM516.92 286.308c14 3.1 22.8 17 19.7 31s-17 22.8-31 19.7c-14-3.1-22.8-17-19.7-31 3.2-14 17-22.8 31-19.7z" fill="#FFFFFF" p-id="3884"></path>
  <path d="M630.52 286.508c14 3.1 22.8 17 19.7 31s-17 22.8-31 19.7c-14-3.1-22.8-17-19.7-31 3.2-14 17-22.8 31-19.7z" fill="#FFDC00" p-id="3885"></path>
  <path d="M680.92 366.608c14 3.1 22.8 17 19.7 31s-17 22.8-31 19.7c-14-3.1-22.8-17-19.7-31 3.1-14 17-22.8 31-19.7zM406.82 286.508c14 3.1 22.8 17 19.7 31s-17 22.8-31 19.7c-14-3.1-22.8-17-19.7-31 3.2-14 17-22.8 31-19.7zM280.82 579.108c26.6 21.2 56.6 42.2 94.8 52.2 14.4 3.8 29.1 5.6 43.9 5.6 32.6 0 66.3-9 100.7-27 103.7-54.3 143.5-36.1 193.8-12.9l5 2.3c11.7 5.3 25.5 0.2 30.8-11.5s0.2-25.5-11.5-30.8l-4.9-2.2c-54.5-25.1-110.9-51-234.9 14-86.9 45.5-143.1 10.4-188.9-26-10.1-8-24.7-6.3-32.7 3.7-7.9 10-6.2 24.6 3.9 32.6z" fill="#FFFFFF" p-id="3886"></path>
  <path d="M739.82 658.508c-29.1-15.8-56.1-29-92.7-30.2-39.1-1.3-84.6 11.8-143 41-93 46.6-155.5 10.8-194.4-20.1-10.1-8-24.7-6.3-32.7 3.7-8 10.1-6.3 24.7 3.7 32.7 32.5 25.9 64.8 41.8 98.6 48.8 12.8 2.6 25.7 3.9 38.8 3.9 34.7 0 70.4-9.1 106.8-27.4 111.4-55.8 147.2-36.3 192.7-11.6 11.3 6.1 25.4 2 31.6-9.3 6.1-11.2 1.9-25.4-9.4-31.5z" fill="#FFFFFF" p-id="3887"></path>
</svg>
