<?xml version="1.0" standalone="no"?><!DOCTYPE svg PUBLIC "-//W3C//DTD SVG 1.1//EN" "http://www.w3.org/Graphics/SVG/1.1/DTD/svg11.dtd">
<svg t="1655621293870" class="icon" viewBox="0 0 1024 1024" version="1.1"
  xmlns="http://www.w3.org/2000/svg" p-id="2663"
  xmlns:xlink="http://www.w3.org/1999/xlink" width="200" height="200">
  <defs>
    <style type="text/css"></style>
  </defs>
  <path d="M722.3 921.5h-420c-110.5 0-200-89.5-200-200v-420c0-110.5 89.5-200 200-200h420c110.5 0 200 89.5 200 200v420c0 110.5-89.5 200-200 200z" fill="transparent" p-id="2664"></path>
  <path d="M726.3 485.3c14.4 0 26 11.6 26 26s-11.6 26-26 26-26-11.6-26-26 11.6-26 26-26zM468.8 365.6c14.4 0 26 11.6 26 26s-11.6 26-26 26-26-11.6-26-26c0-14.3 11.6-26 26-26zM700.3 571.1c14.4 0 26 11.6 26 26s-11.6 26-26 26-26-11.6-26-26c0-14.3 11.6-26 26-26z" fill="#FFDC00" opacity=".93" p-id="2665"></path>
  <path d="M629.8 314c-50.7 0-92 41.3-92 92 0 13.3 10.8 24.1 24.1 24.1S586 419.3 586 406c0-24.2 19.7-43.9 43.9-43.9s43.9 19.7 43.9 43.9-19.7 43.9-43.9 43.9H296.4c-13.3 0-24.1 10.8-24.1 24.1s10.8 24.1 24.1 24.1h333.4c50.7 0 92-41.3 92-92 0-50.9-41.3-92.1-92-92.1zM561.9 525H296.4c-13.3 0-24.1 10.8-24.1 24.1s10.8 24.1 24.1 24.1h265.5c24.2 0 43.9 19.7 43.9 43.9S586.1 661 561.9 661 518 641.3 518 617.1c0-13.3-10.8-24.1-24.1-24.1s-24.1 10.8-24.1 24.1c0 50.7 41.3 92 92 92s92-41.3 92-92c0.1-50.8-41.2-92.1-91.9-92.1z" fill="#FFFFFF" p-id="2666"></path>
</svg>
