<?xml version="1.0" standalone="no"?><!DOCTYPE svg PUBLIC "-//W3C//DTD SVG 1.1//EN" "http://www.w3.org/Graphics/SVG/1.1/DTD/svg11.dtd">
<svg t="1655621323199" class="icon" viewBox="0 0 1024 1024" version="1.1"
  xmlns="http://www.w3.org/2000/svg" p-id="4400"
  xmlns:xlink="http://www.w3.org/1999/xlink" width="200" height="200">
  <defs>
    <style type="text/css"></style>
  </defs>
  <path d="M722 922H302c-110.5 0-200-89.5-200-200V302c0-110.5 89.5-200 200-200h420c110.5 0 200 89.5 200 200v420c0 110.5-89.5 200-200 200z" fill="transparent" p-id="4401"></path>
  <path d="M442.9 704.8c0-6.5 1.6-12.9 4.7-18.6l27.9-72.9 31.3 76.2c2.3 4.8 3.5 10 3.5 15.3-0.3 18.9-15.9 34-34.8 33.7-18.6 0-32.6-14.5-32.6-33.7z" fill="#00C8FF" p-id="4402"></path>
  <path d="M528.8 613.6l-1.5-0.6c-9.6-3.5-14.5-14.1-11.1-23.7l7.1-19.6c3.5-9.6 14.1-14.5 23.7-11.1l1.5 0.5c9.6 3.5 14.5 14.1 11.1 23.7l-7.1 19.6c-3.5 9.7-14.1 14.7-23.7 11.2z m106.7-14.7l-8.8-18.9c-4.3-9.3-0.3-20.3 8.9-24.6l1.4-0.7c9.3-4.3 20.2-0.3 24.6 8.9l8.8 18.9c4.3 9.3 0.3 20.2-8.9 24.6l-1.5 0.7c-9.2 4.3-20.2 0.3-24.5-8.9z m-48-52.2c-53.8 0.1-97.5-43.5-97.6-97.4-0.1-53.8 43.5-97.5 97.4-97.6 53.8-0.1 97.5 43.5 97.6 97.4 0.1 42.7-27.6 80.4-68.4 93.2-9.4 2.9-19.2 4.4-29 4.4z m-157-22.5l-0.7-1.4c-4.3-9.2-0.3-20.2 8.9-24.6l18.9-8.8c9.2-4.3 20.2-0.3 24.5 8.9l0.7 1.4c4.3 9.2 0.3 20.2-8.9 24.6l-18.9 8.8c-9.1 4.3-20.1 0.3-24.5-8.9 0.1 0 0 0 0 0z m296.1-2.9l-19.6-7.1c-9.6-3.5-14.5-14.1-11.1-23.7l0.5-1.5c3.5-9.6 14.1-14.5 23.7-11.1l19.6 7.1c9.6 3.5 14.5 14.1 11.1 23.7l-0.5 1.5c-3.4 9.6-14 14.6-23.7 11.1 0.1 0 0 0 0 0z m-272-99l-19.6-7.1c-9.6-3.5-14.5-14.1-11.1-23.7l0.6-1.5c3.5-9.6 14.1-14.5 23.7-11.1l19.6 7.1c9.6 3.5 14.5 14.1 11.1 23.7l-0.5 1.5c-3.6 9.6-14.1 14.6-23.8 11.1 0.1 0 0 0 0 0z m237.9-20.4l-0.7-1.4c-4.3-9.2-0.3-20.2 8.9-24.5l18.9-8.8c9.2-4.3 20.2-0.3 24.5 8.9l0.7 1.4c4.3 9.2 0.3 20.2-8.9 24.5l-18.9 8.8c-9.1 4.4-20.1 0.4-24.5-8.9 0.1 0 0 0 0 0z m-179.4-65.4l-8.8-18.9c-4.3-9.3-0.3-20.2 8.9-24.6l1.5-0.7c9.3-4.3 20.2-0.3 24.6 8.9l8.8 18.9c4.3 9.3 0.3 20.3-8.9 24.6l-1.4 0.7c-9.3 4.4-20.3 0.4-24.7-8.9 0.1 0.1 0.1 0.1 0 0z m114.6 5l-1.5-0.5c-9.6-3.5-14.5-14.1-11.1-23.7l7.1-19.6c3.5-9.6 14.1-14.5 23.7-11.1l1.5 0.6c9.6 3.5 14.5 14.1 11.1 23.7l-7.1 19.6c-3.4 9.6-14 14.5-23.7 11 0.1 0 0 0 0 0z" fill="#FFDC00" p-id="4403"></path>
  <path d="M378.6 640c-14.2 0-28.4-2.8-41.5-8.4-12.7-5.4-24.2-13.2-33.9-23-42-42.3-41.8-110.6 0.5-152.6 8.8-8.8 19.1-16 30.4-21.2 12.5-5.8 26.1-9.1 39.9-9.6 11.1-19.2 26.9-35.3 45.9-46.7 45.7-27.2 103.5-22.9 144.8 10.6 22.4 18.1 38 43.1 44.6 71.2 45.6 28.6 59.4 88.8 30.7 134.4-3.8 6-8.2 11.7-13.3 16.7-8.7 8.8-19.1 15.9-30.5 20.8-11.8 5.1-24.6 7.6-37.4 7.6-1.9-0.1-176.8 0.2-180.2 0.2z" fill="#FFFFFF" p-id="4404"></path>
</svg>
