<?xml version="1.0" standalone="no"?><!DOCTYPE svg PUBLIC "-//W3C//DTD SVG 1.1//EN" "http://www.w3.org/Graphics/SVG/1.1/DTD/svg11.dtd">
<svg t="1655621308126" class="icon" viewBox="0 0 1024 1024" version="1.1"
  xmlns="http://www.w3.org/2000/svg" p-id="3536"
  xmlns:xlink="http://www.w3.org/1999/xlink" width="200" height="200">
  <defs>
    <style type="text/css"></style>
  </defs>
  <path d="M722 922H302c-110.5 0-200-89.5-200-200V302c0-110.5 89.5-200 200-200h420c110.5 0 200 89.5 200 200v420c0 110.5-89.5 200-200 200z" fill="transparent" p-id="3537"></path>
  <path d="M485.6 628.6h33.6c10.6 0 19.2 8.6 19.2 19.2v33.6c0 10.6-8.6 19.2-19.2 19.2h-33.6c-10.6 0-19.2-8.6-19.2-19.2v-33.6c0-10.6 8.6-19.2 19.2-19.2zM391.9 604.6h19.2c10.6 0 19.2 8.6 19.2 19.2V643c0 10.6-8.6 19.2-19.2 19.2h-19.2c-10.6 0-19.2-8.6-19.2-19.2v-19.2c0-10.6 8.6-19.2 19.2-19.2zM588.9 647.8h43.2c10.6 0 19.2 8.6 19.2 19.2v43.2c0 10.6-8.6 19.2-19.2 19.2h-43.2c-10.6 0-19.2-8.6-19.2-19.2V667c-0.1-10.6 8.5-19.2 19.2-19.2z" fill="#DADADA" p-id="3538"></path>
  <path d="M391.6 620.9c-66 0-119.6-53.5-119.6-119.6s53.5-119.6 119.6-119.6h3.3c36.4-76.4 127.8-108.7 204.2-72.3 47.4 22.6 80 68 86.2 120.1 51.5 17.5 79 73.4 61.5 124.9-13.6 40-51.2 66.8-93.4 66.7l-261.8-0.2z" fill="#FFFFFF" p-id="3539"></path>
</svg>
