<?xml version="1.0" standalone="no"?><!DOCTYPE svg PUBLIC "-//W3C//DTD SVG 1.1//EN" "http://www.w3.org/Graphics/SVG/1.1/DTD/svg11.dtd">
<svg t="1655621335016" class="icon" viewBox="0 0 1024 1024" version="1.1"
  xmlns="http://www.w3.org/2000/svg" p-id="5306"
  xmlns:xlink="http://www.w3.org/1999/xlink" width="200" height="200">
  <defs>
    <style type="text/css"></style>
  </defs>
  <path d="M722 922H302c-110.5 0-200-89.5-200-200V302c0-110.5 89.5-200 200-200h420c110.5 0 200 89.5 200 200v420c0 110.5-89.5 200-200 200z" fill="transparent" p-id="5307"></path>
  <path d="M485.6 628.6h33.6c10.6 0 19.2 8.6 19.2 19.2v33.6c0 10.6-8.6 19.2-19.2 19.2h-33.6c-10.6 0-19.2-8.6-19.2-19.2v-33.6c0-10.6 8.6-19.2 19.2-19.2z" fill="#DADADA" p-id="5308"></path>
  <path d="M614.5 741.3c-18.6-0.6-32.1-15.5-31.5-34.6 0.2-6.5 2-12.8 5.3-18.4l30.2-71.8 28.8 77c2.1 4.8 3.2 10.1 3 15.4-0.9 18.4-16.2 32.8-34.6 32.5-0.4-0.1-0.8-0.1-1.2-0.1zM403.9 677.5c-18.6-0.6-32.1-15.5-31.5-34.6 0.2-6.5 2-12.8 5.3-18.4l30.2-71.8 28.8 77c2.1 4.8 3.2 10.1 3 15.3-0.9 18.4-16.2 32.8-34.6 32.5h-1.2z" fill="#00C8FF" p-id="5309"></path>
  <path d="M391.6 620.9c-66 0-119.6-53.5-119.6-119.6s53.5-119.6 119.6-119.6h3.3c36.4-76.4 127.8-108.7 204.2-72.3 47.4 22.6 80 68 86.2 120.1 51.5 17.5 79 73.4 61.5 124.9-13.6 40-51.2 66.8-93.4 66.7l-261.8-0.2z" fill="#FFFFFF" p-id="5310"></path>
</svg>
