<?xml version="1.0" standalone="no"?><!DOCTYPE svg PUBLIC "-//W3C//DTD SVG 1.1//EN" "http://www.w3.org/Graphics/SVG/1.1/DTD/svg11.dtd">
<svg t="1655621337064" class="icon" viewBox="0 0 1024 1024" version="1.1"
  xmlns="http://www.w3.org/2000/svg" p-id="5487"
  xmlns:xlink="http://www.w3.org/1999/xlink" width="200" height="200">
  <defs>
    <style type="text/css"></style>
  </defs>
  <path d="M722 922H302c-110.5 0-200-89.5-200-200V302c0-110.5 89.5-200 200-200h420c110.5 0 200 89.5 200 200v420c0 110.5-89.5 200-200 200z" fill="transparent" p-id="5488"></path>
  <path d="M493 632.6c-25.7-1.4-44-22.5-42.5-49.2 0.5-9 3.2-17.7 7.9-25.4l30.6-68.6c-3.2-1.3-6.3-3.1-8.9-5.4l-53 61.1c-4.5 5.8-10.2 10.5-16.7 13.9-23.2 11.5-51.3 2.1-62.8-21.1 0-0.1-0.1-0.1-0.1-0.2-11.5-22.7-2.3-48.9 21.4-60.9 8-4.1 16.8-6.1 25.8-5.9l73.7-8c-0.2-1.7-0.3-3.5-0.3-5.2 0-1 0.1-2 0.2-3L387.8 439c-7.2-1-14.2-3.6-20.3-7.5-21.6-14.5-27.4-43.7-13-65.3 13.9-21.3 41.1-26.4 63.3-11.9 7.5 4.9 13.7 11.6 18 19.4l43.5 59.7c3.2-2.8 6.9-5 10.9-6.5l-25.9-66.1c-4.3-7.9-6.7-16.8-6.7-25.8-0.2-26.7 19-47 44.7-47.2 25.8-0.2 48.3 19.7 48.6 46.4 0 7.3-1.5 14.6-4.7 21.3L517 428.8c2.2 1.2 4.2 2.6 6.1 4.2l44.4-55.5c4.7-7.7 11.2-14.1 18.9-18.6 22.9-13.5 49.8-7.2 62.7 14.7 13.4 22.3 6.3 51.2-16 64.7-6.3 3.7-13.4 6-20.6 6.6l-77.7 11.6c0 0.9 0.1 1.8 0 2.7-0.1 2.4-0.4 4.8-0.9 7.2l69 10.7c9 0.2 17.7 2.7 25.5 7.1 23.1 13.1 31.1 39.7 18.6 61.8-12.4 22.7-40.9 31-63.6 18.6-0.1 0-0.1-0.1-0.2-0.1-6.4-3.6-11.8-8.6-16-14.6l-49.3-62.3c-1.5 0.8-3 1.6-4.6 2.2l26.9 77.4c2.8 6.8 4.1 14.1 3.7 21.5-1.7 25.1-22.7 44.5-47.9 44.2-1.2-0.2-2.1-0.2-3-0.3zM387.6 713.2c-8.6-0.3-15.3-7.6-15-16.2v-0.7c0.1-3.1 1-6.2 2.5-9l10-24.3c-1.1-0.4-2.2-1-3.1-1.8l-17.7 21.9c-1.5 2-3.4 3.7-5.6 5-7.9 4.1-17.6 1.1-21.7-6.8-4.1-7.9-1.1-17.6 6.8-21.7 2.7-1.5 5.7-2.3 8.8-2.3l25.3-3.4c-0.1-0.6-0.1-1.2-0.1-1.8v-1l-27.8-4.9c-9-1-15.5-9.1-14.5-18.2 0.3-2.5 1.1-4.9 2.5-7.1 4.2-7.2 13.5-9.5 20.6-5.3 0.3 0.2 0.7 0.4 1 0.6 2.6 1.7 4.8 3.9 6.3 6.7l15.4 20.6c1.1-1 2.3-1.8 3.7-2.4l-9.4-22.9c-1.6-2.7-2.4-5.8-2.5-9-0.7-8.6 5.7-16.1 14.3-16.8h0.7c9-0.3 16.6 6.7 17 15.8v0.1c0.1 2.6-0.4 5.1-1.4 7.5l-9.4 25.9c0.8 0.4 1.5 0.9 2.1 1.4l14.8-19.8c1.5-2.7 3.7-5 6.3-6.7 6.8-4.8 16.2-3.1 21 3.7 0.2 0.3 0.4 0.6 0.6 1 4.9 7.6 2.7 17.8-4.9 22.7-2.1 1.4-4.6 2.2-7.1 2.5l-26.5 4.7v0.9c0 0.9-0.1 1.7-0.3 2.5l23.7 3.2c3.1 0 6.1 0.8 8.8 2.3 7.9 4.1 10.9 13.8 6.8 21.7-4.1 7.9-13.8 10.9-21.7 6.8-2.2-1.2-4.1-2.9-5.6-5l-17.4-21.4c-0.5 0.3-1 0.6-1.6 0.8l9.8 26.9c1 2.4 1.5 4.9 1.4 7.5-0.3 8.9-7.6 15.9-16.4 15.8h-0.5zM300.3 583.9c-4.6-0.1-8.2-3.9-8.1-8.4v-0.4c0.1-1.7 0.5-3.3 1.4-4.7l5.4-12.7c-0.6-0.2-1.2-0.5-1.7-0.9l-9.6 11.4c-0.8 1.1-1.8 2-3 2.6-4.3 2.2-9.5 0.6-11.7-3.7-2.1-4-0.7-8.9 3.3-11.1 0.1-0.1 0.3-0.1 0.4-0.2 1.5-0.8 3.1-1.2 4.8-1.2l13.6-1.8c-0.1-0.3-0.1-0.6-0.1-1v-0.5l-14.9-2.5c-1.4-0.1-2.7-0.6-3.8-1.3-4-2.5-5.3-7.8-2.7-11.8 0 0 0-0.1 0.1-0.1 2.4-3.9 7.6-5 11.4-2.6 0.1 0 0.2 0.1 0.2 0.2 1.4 0.9 2.6 2.1 3.4 3.5l8.3 10.8c0.6-0.5 1.3-1 2-1.2l-5.1-12c-0.8-1.4-1.3-3-1.4-4.7-0.3-4.6 3.1-8.5 7.7-8.8h0.4c4.8-0.3 8.9 3.5 9.2 8.3 0 1.3-0.2 2.7-0.8 3.9l-5.1 13.6c0.4 0.2 0.8 0.5 1.1 0.7l8-10.4c0.8-1.4 2-2.6 3.4-3.5 3.8-2.6 8.9-1.6 11.5 2.2 0.1 0.1 0.1 0.2 0.2 0.2 2.6 4 1.4 9.3-2.6 11.9 0 0-0.1 0-0.1 0.1-1.2 0.7-2.4 1.1-3.8 1.3l-14.4 2.5v0.5c0 0.4 0 0.9-0.1 1.3l12.9 1.7c1.7 0 3.3 0.4 4.8 1.2 4.1 1.9 5.8 6.8 3.9 10.9-0.1 0.1-0.1 0.3-0.2 0.4-2.2 4.2-7.5 5.9-11.8 3.6-1.2-0.6-2.2-1.5-3-2.6l-9.4-11.2c-0.3 0.2-0.5 0.3-0.8 0.4l5.3 14.1c0.5 1.2 0.8 2.6 0.8 3.9-0.2 4.7-4.2 8.4-8.9 8.3l-0.4-0.2zM705.4 520.6c-7.3-0.1-13.1-6.1-13-13.4v-0.6c0.1-2.6 0.8-5.2 2.2-7.5l8.6-20.2c-1-0.4-1.9-0.9-2.7-1.5l-15.3 18.2c-1.3 1.7-2.9 3.2-4.9 4.2-6.8 3.5-15.2 0.9-18.8-5.8-3.4-6.3-1.1-14.2 5.2-17.6 0.2-0.1 0.5-0.2 0.7-0.3 2.3-1.2 4.9-1.9 7.6-1.9l21.8-2.8c-0.1-0.5-0.1-1-0.1-1.5v-0.9l-24-4.1c-2.1-0.2-4.2-0.9-6-2.1-6.4-4-8.4-12.3-4.4-18.7 0-0.1 0.1-0.2 0.1-0.2 3.9-6.2 12.2-8 18.4-4.1 0.1 0.1 0.2 0.1 0.3 0.2 2.2 1.4 4.1 3.3 5.5 5.6l13.3 17.2c0.9-0.9 2-1.5 3.2-2l-8.1-19.1c-1.3-2.3-2.1-4.8-2.2-7.5-0.5-7.3 5-13.6 12.3-14h0.6c7.7-0.4 14.3 5.5 14.7 13.2 0.1 2.2-0.4 4.3-1.2 6.3l-8.1 21.5c0.7 0.3 1.3 0.7 1.8 1.2l12.8-16.5c1.3-2.3 3.2-4.2 5.5-5.6 6.1-4.1 14.4-2.5 18.5 3.6 0.1 0.1 0.1 0.2 0.2 0.3 4.1 6.3 2.2 14.8-4.1 18.8-0.1 0-0.1 0.1-0.2 0.1-1.8 1.1-3.9 1.8-6.1 2.1l-23 3.9v0.8c0 0.7-0.1 1.4-0.2 2.1l20.5 2.7c2.7 0 5.3 0.7 7.6 1.9 6.5 3 9.3 10.7 6.3 17.2-0.1 0.2-0.2 0.5-0.3 0.7-3.6 6.7-12 9.3-18.8 5.8-1.9-1-3.6-2.4-4.8-4.2l-15-17.8c-0.4 0.3-0.9 0.5-1.4 0.7l8.5 22.4c0.9 2 1.3 4.1 1.2 6.2-0.4 7.5-6.7 13.4-14.2 13.2l-0.5-0.2zM298.9 342.4c-4.4-0.1-7.8-3.7-7.7-8.1v-0.4c0-1.6 0.5-3.1 1.3-4.5l5.1-12.2c-0.6-0.2-1.1-0.5-1.6-0.9l-9.1 10.9c-0.8 1-1.8 1.9-2.9 2.5-4 2.1-9 0.6-11.1-3.5-2-3.8-0.6-8.5 3.2-10.6 0.1-0.1 0.2-0.1 0.3-0.2 1.4-0.7 2.9-1.1 4.5-1.1l12.9-1.7c0-0.3-0.1-0.6-0.1-0.9v-0.5l-14.2-2.4c-1.3-0.1-2.5-0.6-3.6-1.2-3.8-2.4-5-7.5-2.6-11.3 2.3-3.7 7.1-4.8 10.8-2.5 0.1 0.1 0.2 0.1 0.3 0.2 1.3 0.8 2.5 2 3.2 3.3l7.9 10.3c0.5-0.5 1.2-0.9 1.9-1.2l-4.8-11.4c-0.8-1.4-1.2-2.9-1.3-4.5-0.3-4.3 3-8.1 7.3-8.4h0.4c4.6-0.2 8.5 3.3 8.7 7.9 0 1.3-0.2 2.6-0.7 3.7l-4.8 12.9c0.4 0.2 0.7 0.4 1.1 0.7l7.6-9.9c0.8-1.4 1.9-2.5 3.2-3.3 3.6-2.4 8.5-1.5 10.9 2.1 0.1 0.1 0.1 0.2 0.2 0.3 2.4 3.8 1.3 8.9-2.5 11.4-1.1 0.7-2.3 1.1-3.6 1.2l-13.7 2.3v0.4c0 0.4 0 0.9-0.1 1.3l12.2 1.6c1.6 0 3.1 0.4 4.5 1.1 3.9 1.9 5.5 6.5 3.7 10.4-0.1 0.1-0.1 0.2-0.2 0.3-2.1 4-7.1 5.6-11.2 3.5-1.1-0.6-2.1-1.4-2.9-2.5l-9-10.8c-0.3 0.2-0.5 0.3-0.8 0.4l5.1 13.5c0.5 1.2 0.8 2.5 0.7 3.7-0.2 4.5-4 8-8.4 7.9l-0.1 0.2zM647.6 742c-11.5-0.4-20.6-10-20.2-21.6v-0.9c0.1-4.2 1.3-8.3 3.4-11.9l13.4-32.4c-1.5-0.6-2.9-1.4-4.2-2.4l-23.9 29.1c-2 2.7-4.6 5-7.5 6.6-10.6 5.6-23.6 1.5-29.2-9 0-0.1-0.1-0.2-0.1-0.3-5.4-10.2-1.5-22.9 8.7-28.3l0.6-0.3c3.6-2 7.7-3 11.9-3l34-4.5c-0.1-0.8-0.2-1.6-0.2-2.4 0-0.5 0-0.9 0.1-1.4l-37.4-6.5c-3.4-0.4-6.6-1.5-9.5-3.3-10.2-6.6-13.2-20.1-6.7-30.3 5.9-9.7 18.5-12.7 28.2-6.9 0.3 0.2 0.7 0.4 1 0.7 3.5 2.2 6.5 5.3 8.5 8.9l20.8 27.5c1.4-1.3 3.1-2.4 5-3.1l-12.7-30.6c-2.1-3.6-3.3-7.8-3.4-12-0.9-11.5 7.8-21.6 19.3-22.4h0.9c12.2-0.5 22.4 8.9 23 21.1 0.1 3.4-0.6 6.8-1.9 10L656.7 647c1 0.5 2 1.1 2.9 1.9l20-26.4c2.1-3.6 5-6.7 8.5-8.9 9.3-6.4 22.1-4.1 28.5 5.2 0.2 0.3 0.4 0.7 0.7 1 6.4 10.3 3.4 23.8-6.7 30.3-2.9 1.8-6.1 2.9-9.5 3.3l-35.9 6.2c0 0.4 0.1 0.8 0.1 1.3 0 1.1-0.1 2.2-0.4 3.3l32.1 4.2c4.1 0 8.2 1.1 11.9 3 10.4 5.1 14.7 17.7 9.6 28.1l-0.3 0.6c-5.4 10.6-18.4 14.9-29.1 9.4-0.1 0-0.2-0.1-0.3-0.1-3-1.6-5.6-3.9-7.6-6.6l-23.5-28.5c-0.7 0.4-1.4 0.8-2.1 1.1l13.3 35.9c1.4 3.1 2 6.5 1.9 10-0.5 11.9-10.3 21.2-22.2 21.1-0.6-0.4-0.8-0.4-1-0.4z" fill="#DADADA" p-id="5489"></path>
</svg>
