<?xml version="1.0" standalone="no"?><!DOCTYPE svg PUBLIC "-//W3C//DTD SVG 1.1//EN" "http://www.w3.org/Graphics/SVG/1.1/DTD/svg11.dtd">
<svg t="1655621310173" class="icon" viewBox="0 0 1024 1024" version="1.1"
  xmlns="http://www.w3.org/2000/svg" p-id="3708"
  xmlns:xlink="http://www.w3.org/1999/xlink" width="200" height="200">
  <defs>
    <style type="text/css"></style>
  </defs>
  <path d="M722 922H302c-110.5 0-200-89.5-200-200V302c0-110.5 89.5-200 200-200h420c110.5 0 200 89.5 200 200v420c0 110.5-89.5 200-200 200z" fill="transparent" p-id="3709"></path>
  <path d="M513 752h-2.2c-14.1 0-25.5-11.5-25.5-25.6v-28.9c0-14.1 11.5-25.5 25.6-25.5h2.2c14.1 0 25.5 11.5 25.5 25.6v28.9c0 14.1-11.5 25.5-25.6 25.5z m131.7-69.5l-20.4-20.4c-10-10-10-26.2 0-36.1l1.6-1.6c10-10 26.2-10 36.1 0l20.4 20.4c10 10 10 26.2 0 36.1l-1.6 1.6c-9.9 10-26.1 10-36.1 0z m-301.5-0.3l-1.6-1.6c-10-10-10-26.1 0-36.1l20.4-20.4c10-10 26.1-10 36.1 0l1.6 1.6c10 10 10 26.1 0 36.1l-20.4 20.4c-10 10-26.1 10-36.1 0z m168.6-36.7c-74.2 0-134.4-60.2-134.3-134.3 0-74.2 60.2-134.3 134.3-134.3h0.1c74.2 0 134.3 60.1 134.3 134.3S586 645.5 511.8 645.5c0.1 0 0.1 0 0 0z m214.6-106.8h-28.9c-14.1 0-25.6-11.5-25.5-25.6v-2.2c0-14.1 11.5-25.5 25.6-25.5h28.9c14.1 0 25.5 11.5 25.5 25.6v2.2c0 14.1-11.5 25.5-25.6 25.5z m-400-0.1h-28.9c-14.1 0-25.6-11.5-25.5-25.6v-2.2c0-14.1 11.5-25.5 25.6-25.5h28.9c14.1 0 25.6 11.5 25.5 25.6v2.2c0 14-11.5 25.5-25.6 25.5z m299.4-138.8l-1.6-1.6c-10-10-10-26.1 0-36.1l20.4-20.4c10-10 26.1-10 36.1 0l1.6 1.6c10 10 10 26.1 0 36.1l-20.4 20.4c-10 10-26.1 10-36.1 0z m-263.8-0.2l-20.4-20.4c-10-10-10-26.2 0-36.1l1.6-1.6c10-10 26.2-10 36.1 0l20.4 20.4c10 10 10 26.2 0 36.1l-1.6 1.6c-10 10-26.2 10-36.1 0zM513.1 352h-2.2c-14.1 0-25.6-11.5-25.5-25.6v-28.9c0-14.1 11.5-25.6 25.6-25.5h2.2c14.1 0 25.5 11.4 25.5 25.6v28.9c0 14-11.4 25.5-25.6 25.5z" fill="#FFDC00" p-id="3710"></path>
</svg>
