<?xml version="1.0" standalone="no"?><!DOCTYPE svg PUBLIC "-//W3C//DTD SVG 1.1//EN" "http://www.w3.org/Graphics/SVG/1.1/DTD/svg11.dtd">
<svg t="1655621325112" class="icon" viewBox="0 0 1024 1024" version="1.1"
  xmlns="http://www.w3.org/2000/svg" p-id="4581"
  xmlns:xlink="http://www.w3.org/1999/xlink" width="200" height="200">
  <defs>
    <style type="text/css"></style>
  </defs>
  <path d="M722 922H302c-110.5 0-200-89.5-200-200V302c0-110.5 89.5-200 200-200h420c110.5 0 200 89.5 200 200v420c0 110.5-89.5 200-200 200z" fill="transparent" p-id="4582"></path>
  <path d="M474.2 601.709l-47.2 81.8h35.7l-0.1 58.5 46.7-82.1h-35.2l0.1-58.2zM527.8 611.709l-1.5-0.6c-9.6-3.5-14.6-14.2-11.1-23.8l7.2-19.7c3.5-9.6 14.2-14.6 23.8-11.1l1.5 0.6c9.6 3.5 14.6 14.2 11.1 23.8l-7.2 19.7c-3.5 9.6-14.1 14.6-23.8 11.1z m107.2-14.8l-8.9-19c-4.3-9.3-0.3-20.4 9-24.7l1.5-0.7c9.3-4.3 20.3-0.3 24.7 9l8.9 19c4.3 9.3 0.3 20.3-9 24.7l-1.5 0.7c-9.3 4.3-20.4 0.3-24.7-9z m-81.6-58.3c-50.7-18.4-76.8-74.4-58.3-125.1 18.4-50.7 74.4-76.8 125.1-58.3 50.7 18.4 76.8 74.4 58.3 125.1-6.9 19-19.6 35.5-36.3 47-26 17.9-59.1 22.2-88.8 11.3z m-124.3-16.7l-0.7-1.5c-4.3-9.3-0.3-20.3 9-24.7l19-8.9c9.3-4.3 20.3-0.3 24.7 9l0.7 1.5c4.3 9.3 0.3 20.3-9 24.7l-19 8.9c-9.3 4.3-20.3 0.3-24.7-9z m297.4-2.9l-19.7-7.2c-9.6-3.5-14.6-14.2-11.1-23.8l0.6-1.5c3.5-9.6 14.2-14.6 23.8-11.1l19.7 7.2c9.6 3.5 14.6 14.2 11.1 23.8l-0.6 1.5c-3.5 9.6-14.1 14.6-23.8 11.1z m-273.2-99.5l-19.7-7.2c-9.6-3.5-14.6-14.2-11.1-23.8l0.6-1.5c3.5-9.6 14.2-14.6 23.8-11.1l19.7 7.2c9.6 3.5 14.6 14.2 11.1 23.8l-0.6 1.5c-3.5 9.6-14.1 14.6-23.8 11.1z m239-20.5l-0.7-1.5c-4.3-9.3-0.3-20.3 9-24.7l19-8.9c9.3-4.3 20.3-0.3 24.7 9l0.7 1.5c4.3 9.3 0.3 20.3-9 24.7l-19 8.9c-9.3 4.3-20.4 0.3-24.7-9z m-180.2-65.7l-8.9-19c-4.3-9.3-0.3-20.4 9-24.7l1.5-0.7c9.3-4.3 20.3-0.3 24.7 9l8.9 19c4.3 9.3 0.3 20.3-9 24.7l-1.5 0.7c-9.3 4.3-20.4 0.3-24.7-9z m115.1 5l-1.5-0.6c-9.6-3.5-14.6-14.2-11.1-23.8l7.2-19.7c3.5-9.6 14.2-14.6 23.8-11.1l1.5 0.6c9.6 3.5 14.6 14.2 11.1 23.8l-7.2 19.7c-3.5 9.7-14.1 14.7-23.8 11.1 0 0.1 0 0.1 0 0z" fill="#FFDC00" p-id="4583"></path>
  <path d="M379.1 637.809c-14.3 0-28.5-2.9-41.6-8.5-12.7-5.4-24.3-13.3-34-23.1-42.2-42.5-41.9-111.1 0.6-153.3 8.9-8.8 19.2-16 30.6-21.3 12.6-5.8 26.2-9.1 40.1-9.7 11.1-19.3 27-35.5 46.1-46.9 45.9-27.3 104-23 145.5 10.6 22.5 18.2 38.2 43.3 44.8 71.5 45.8 28.8 59.6 89.2 30.9 135-3.8 6.1-8.3 11.7-13.3 16.8-8.8 8.9-19.2 16-30.7 20.9-11.9 5.1-24.7 7.7-37.6 7.7-2.4 0-178 0.3-181.4 0.3z" fill="#FFFFFF" p-id="4584"></path>
</svg>
