<?xml version="1.0" standalone="no"?><!DOCTYPE svg PUBLIC "-//W3C//DTD SVG 1.1//EN" "http://www.w3.org/Graphics/SVG/1.1/DTD/svg11.dtd">
<svg t="1655621318889" class="icon" viewBox="0 0 1024 1024" version="1.1"
  xmlns="http://www.w3.org/2000/svg" p-id="4052"
  xmlns:xlink="http://www.w3.org/1999/xlink" width="200" height="200">
  <defs>
    <style type="text/css"></style>
  </defs>
  <path d="M722 922H302c-110.5 0-200-89.5-200-200V302c0-110.5 89.5-200 200-200h420c110.5 0 200 89.5 200 200v420c0 110.5-89.5 200-200 200z" fill="transparent" p-id="4053"></path>
  <path d="M670.4 307c-42.7-16.7-98.9-25.9-158.4-25.9s-115.7 9.2-158.4 25.9c-49.5 19.4-76.7 47.8-76.7 80.1s27.3 60.8 76.7 80.1c42.7 16.7 98.9 25.9 158.4 25.9s115.7-9.2 158.4-25.9c49.5-19.4 76.7-47.8 76.7-80.1 0-32.2-27.2-60.7-76.7-80.1z m-16.8 117.5c-37.5 14.7-87.8 22.7-141.6 22.7-53.9 0-104.2-8.1-141.6-22.7-32.8-12.8-47.5-28-47.5-37.3s14.7-24.4 47.5-37.3c37.5-14.7 87.8-22.7 141.6-22.7 53.9 0 104.2 8.1 141.6 22.7 32.8 12.8 47.5 28 47.5 37.3s-14.7 24.4-47.5 37.3zM625 604.2c-33.3 8.8-72.3 13.5-113 13.5-40.6 0-79.5-4.6-112.7-13.4-12.3-3.2-24.9 4.1-28.1 16.4-3.2 12.3 4.1 24.9 16.4 28.1 37 9.8 80 14.9 124.5 14.9 44.6 0 87.8-5.2 124.8-15 12.3-3.3 19.6-15.9 16.3-28.1-3.3-12.3-15.9-19.6-28.2-16.4zM578.1 692.6c-21.2 2.9-43.4 4.3-66.1 4.3-20.5 0-40.7-1.2-60.1-3.5-12.6-1.5-24.1 7.5-25.6 20.1s7.5 24.1 20.1 25.6c21.2 2.6 43.3 3.9 65.6 3.9 24.7 0 49.1-1.6 72.3-4.7 12.6-1.7 21.4-13.3 19.7-25.9-1.7-12.7-13.3-21.5-25.9-19.8z" fill="#FFFFFF" p-id="4054"></path>
  <path d="M512 580.7c-92.8 0-173.9-22-211.6-57.3-9.3-8.7-9.7-23.2-1-32.5s23.2-9.7 32.5-1c23.8 22.3 88.7 44.8 180.1 44.8s156.3-22.5 180.1-44.9c9.3-8.7 23.8-8.2 32.5 1 8.7 9.3 8.2 23.8-1 32.5-37.7 35.4-118.8 57.4-211.6 57.4z" fill="#FFDC00" p-id="4055"></path>
</svg>
