<?xml version="1.0" standalone="no"?><!DOCTYPE svg PUBLIC "-//W3C//DTD SVG 1.1//EN" "http://www.w3.org/Graphics/SVG/1.1/DTD/svg11.dtd">
<svg t="1655621283318" class="icon" viewBox="0 0 1024 1024" version="1.1"
  xmlns="http://www.w3.org/2000/svg" p-id="1794"
  xmlns:xlink="http://www.w3.org/1999/xlink" width="200" height="200">
  <defs>
    <style type="text/css"></style>
  </defs>
  <path d="M722 922H302c-110.5 0-200-89.5-200-200V302c0-110.5 89.5-200 200-200h420c110.5 0 200 89.5 200 200v420c0 110.5-89.5 200-200 200z" fill="transparent" p-id="1795"></path>
  <path d="M318.5 532.1h70.4c13.9 0 25.1 11.3 25.1 25.1s-11.3 25.1-25.1 25.1h-70.4c-13.9 0-25.1-11.3-25.1-25.1s11.2-25.1 25.1-25.1zM479.3 532.1h226.2c13.9 0 25.1 11.3 25.1 25.1s-11.3 25.1-25.1 25.1H479.3c-13.9 0-25.1-11.3-25.1-25.1s11.3-25.1 25.1-25.1z" fill="#FFDC00" p-id="1796"></path>
  <path d="M342.4 351.2h351.8c13.9 0 25.1 11.3 25.1 25.1s-11.3 25.1-25.1 25.1H342.4c-13.9 0-25.1-11.3-25.1-25.1s11.2-25.1 25.1-25.1zM342.4 441.6h351.8c13.9 0 25.1 11.3 25.1 25.1s-11.3 25.1-25.1 25.1H342.4c-13.9 0-25.1-11.3-25.1-25.1s11.2-25.1 25.1-25.1zM342.4 622.6h351.8c13.9 0 25.1 11.3 25.1 25.1s-11.3 25.1-25.1 25.1H342.4c-13.9 0-25.1-11.3-25.1-25.1s11.2-25.1 25.1-25.1z" fill="#FFFFFF" p-id="1797"></path>
</svg>
